<svg width="240" height="240" viewBox="0 0 240 240" fill="none" xmlns="http://www.w3.org/2000/svg">
<g clip-path="url(#clip0_193_269)">
<rect width="240" height="240" rx="24" fill="white"/>
<path d="M39.0001 70.2521C64.5539 38.0444 113.626 31.6026 138.267 61.9699C114.538 48.1668 83.9998 58 71.9998 77C69.5163 80.9323 68.9998 84 70.9998 86C72.9998 88 75.9151 88.3829 78.9998 85C99.9998 61.9699 125.49 67.4917 140.092 77.6139C146.896 82.3304 154.697 96.9383 153.782 109.821C150.131 107.981 149.226 104.3 145.576 98.7788C141.251 92.2365 125.498 86.8158 119.11 97.8584C127.324 97.8584 129.459 102.787 130.061 106.141C130.392 107.981 131.732 111.822 125.497 114.423C72.5572 136.508 59.446 197.266 84.9998 240H205C196 233 181.959 224.596 173.507 215.667C166.275 208.026 163.666 195.358 168.229 189.881C175.056 181.687 183.228 194.703 191.208 199.599C192.555 200.423 197.169 203.426 199.421 204.604C200.586 196.726 203.627 186.809 207.326 179.012C218.675 155.086 207.581 143.622 193.034 133.001C166.568 113.676 178.5 107.061 168.461 82.2146C134.254 -2.44591 45.342 29.7629 28.0001 64.7308C26.7098 67.3325 25.2036 70.4473 28.9998 73C31.7369 74.8404 35.9306 74.1209 39.0001 70.2521Z" fill="black"/>
<path d="M136.257 183.214C130.522 184.026 123.67 189.343 119.039 193.934C120.891 189.343 122.744 185.824 127.376 181.999C132.934 177.409 155.784 166.936 184.575 176.113C188.503 177.362 193.342 181.963 196.132 176.477C199.13 170.572 206.116 158.6 198.705 153.703C182.031 142.687 170.915 130.736 162.577 127.244C143.124 119.095 125.976 122.881 108.584 140.074C89.4385 159.001 81.7757 182.227 84.551 208.759C86.2333 224.872 96 239.999 96 239.999H191C176.413 228.982 157.967 219.845 157.329 202.6C156.486 179.843 146.371 181.782 136.257 183.214Z" fill="#00A5E3"/>
</g>
<defs>
<clipPath id="clip0_193_269">
<rect width="240" height="240" fill="white"/>
</clipPath>
</defs>
</svg>
