<svg width="775" height="440" viewBox="0 0 775 440" fill="none" xmlns="http://www.w3.org/2000/svg">
<path d="M403.44 335.616C403.44 336.408 406.392 338.28 407.328 338.28C408.696 338.28 409.848 337.776 411.072 337.344C416.04 335.544 419.856 331.656 419.856 325.752C419.856 322.728 419.568 319.344 416.832 317.328C416.328 316.896 414.672 316.68 414.24 316.032C414.816 315.168 416.616 314.52 417.408 313.8C420.216 311.424 423.96 304.8 423.96 300.552C423.96 295.224 420.216 289.752 414.6 289.752C411.144 289.752 404.88 289.968 404.88 291.984C404.88 292.704 405.168 293.28 405.168 294.072C405.168 306.312 404.016 322.152 404.016 331.872L403.44 335.616ZM409.2 330.072C409.2 325.896 408.84 321.576 409.776 317.688C409.848 317.688 409.92 317.76 409.992 317.76C413.304 318.984 414.816 322.512 414.816 325.896C414.816 329.208 413.088 330.864 410.712 333.24C410.568 333.312 410.424 333.312 410.352 333.312C409.2 333.312 409.128 331.152 409.2 330.072ZM409.92 311.712C409.92 311.568 409.992 311.064 409.992 310.992L411.072 294.072C411.072 294 411 294 411 293.928C411 293.424 413.52 292.704 414.6 292.704C418.128 292.704 418.92 296.088 418.92 298.968C418.92 304.296 416.4 308.616 412.512 312C411.936 312.504 411.504 312.864 410.784 312.864C409.992 312.864 409.92 312.432 409.92 311.712Z" fill="black"/>
<path d="M426.998 325.752C427.43 330.648 427.79 335.76 432.47 338.352C434.27 339.36 435.782 339.864 437.798 339.864H439.022C439.598 339.432 440.246 339.504 440.894 339.144C445.718 336.264 447.95 328.488 448.382 322.44V321.792C448.958 318.912 449.534 316.248 449.894 313.368C450.182 310.632 450.11 308.184 450.398 305.448V293.712C450.398 293.64 450.614 292.92 450.614 292.776V292.632C450.614 291.624 449.534 291.264 448.814 291.264C447.374 291.264 444.278 291.264 444.278 293.208C444.278 294.432 444.71 295.656 444.71 297.024V310.2C444.422 312.288 444.566 314.16 444.422 316.248C444.062 320.424 443.486 323.592 442.478 327.84C441.47 330.576 440.39 336.408 437.87 336.408C433.478 336.408 433.334 333.888 432.11 330.72L431.534 323.952V317.904L432.83 302.856C433.406 301.056 433.406 299.04 433.766 297.24C434.126 295.656 434.558 294.72 434.63 293.136C434.63 292.488 434.054 292.2 433.334 292.2C431.822 292.2 430.382 292.704 428.942 292.776C427.358 292.848 426.854 310.92 426.854 317.904C426.854 319.056 426.998 324.6 426.998 325.752Z" fill="black"/>
<path d="M457.678 339.576C458.254 339.792 459.406 339.792 459.406 339.792C461.71 339.792 462.79 339.576 464.878 339.072C466.39 339.072 467.758 339.432 469.198 339.432C469.99 339.432 470.206 338.784 470.206 338.064C470.206 337.2 469.702 336.048 469.054 335.616H466.246L466.03 335.328C466.03 326.4 463.582 301.2 463.582 296.232C463.582 295.944 463.582 295.08 463.654 295.008L463.798 294.648C464.086 294.648 465.382 295.224 465.67 295.224C466.75 295.224 467.542 294.36 467.542 293.352C467.542 291.912 467.038 290.688 465.742 290.688C460.27 290.688 454.078 291.552 454.078 291.264L453.574 291.84C453.502 291.912 453.502 292.488 453.502 292.704C453.502 293.784 453.79 295.584 455.014 295.944C455.806 295.8 458.038 295.368 457.966 295.368C458.038 295.368 458.398 295.368 458.398 295.584V304.008L460.342 335.184L459.91 335.76H457.462C456.742 335.76 456.67 336.912 456.67 337.2C456.67 338.208 456.958 338.784 457.678 339.576Z" fill="black"/>
<path d="M478.169 340.008C478.673 340.872 479.969 341.016 480.761 341.016C481.913 341.016 482.993 339.72 482.993 338.64V336.336C482.993 334.032 482.633 331.872 482.633 329.64C482.633 322.656 482.273 315.672 482.273 308.76C482.273 305.16 482.417 294.432 482.849 294.432H487.169C489.617 294.432 489.761 292.416 489.761 290.904C489.761 290.04 488.105 289.68 487.457 289.68C483.857 289.68 480.401 290.112 476.873 290.616C475.865 290.616 471.113 290.688 469.745 293.064V294.36C469.745 295.584 469.889 297.6 471.617 297.6H471.977C473.273 296.736 474.785 295.512 476.441 295.512C476.873 295.512 476.945 295.512 476.945 296.088L477.881 321.504C478.097 326.688 478.241 331.872 478.241 335.616C478.241 337.488 478.241 339.36 478.169 340.008Z" fill="black"/>
<path d="M489.854 334.248C489.854 335.328 490.286 336.984 491.654 336.984C494.39 336.984 497.99 335.544 500.15 335.544C501.734 335.544 504.83 336.048 504.83 333.384C504.83 332.304 504.038 331.296 502.742 331.296C501.086 331.296 499.646 332.088 497.918 332.088C495.686 332.088 495.254 330.144 495.254 327.408C495.254 324.384 495.038 319.488 495.83 316.824C496.262 316.608 497.63 316.104 497.702 316.032C499.718 315.672 502.238 316.68 502.238 313.584C502.238 312.216 501.374 310.488 499.79 310.488C498.494 310.488 497.486 311.424 496.262 311.424C495.686 311.424 495.614 310.056 495.614 308.76C495.614 306.384 495.83 301.416 495.83 296.808C495.83 294.576 499.43 294.72 500.438 294.72C501.086 294.72 501.734 294.792 502.022 294.792C503.318 293.928 504.254 292.632 504.254 291.048C504.254 290.328 503.102 289.896 502.526 289.896C500.51 289.896 491.942 291.624 491.006 292.704C491.006 296.664 491.078 301.344 490.79 303.576C490.79 304.944 490.862 308.688 490.862 312.504C490.862 321.792 490.718 322.44 490.43 330.216C490.358 331.584 489.854 332.88 489.854 334.248Z" fill="black"/>
<path d="M521.177 329.352C522.401 332.448 523.265 338.136 525.641 338.136C527.297 338.136 527.801 336.984 527.873 335.472C528.521 321.576 528.521 307.608 529.169 293.712C529.241 292.776 529.601 291.84 529.601 290.904C529.601 289.824 528.953 289.032 527.873 289.032C526.145 289.032 523.913 290.256 523.841 292.2C523.481 302.208 523.409 312.144 523.409 322.08L523.193 322.656L523.049 322.44C522.257 321.648 520.889 314.808 520.457 313.08C518.729 306.024 516.353 298.824 514.265 291.84C514.265 290.04 513.545 288.456 511.601 288.456C510.161 288.456 509.225 288.96 508.289 290.184C508.289 297.384 507.929 303.864 507.929 311.424C507.929 313.08 508.145 326.76 508.145 328.416C508.145 331.152 507.713 333.96 507.713 336.552C507.713 337.488 508.793 337.776 509.657 337.776C510.809 337.776 513.329 336.264 513.329 335.472V335.328C512.681 332.376 512.537 329.784 512.537 327.264C512.537 325.104 512.681 322.944 512.681 320.496V314.808C512.681 309.48 512.753 302.28 513.257 302.28C513.761 302.28 516.497 312.72 516.713 313.872L521.177 329.352Z" fill="black"/>
<path d="M536.495 339.144C536.495 340.08 537.719 341.016 538.727 341.016C540.599 341.016 545.999 337.488 545.999 336.552C548.303 334.248 550.607 330.576 550.607 326.4C550.607 322.368 548.375 318.408 546.215 315.168C545.495 314.16 542.399 309.552 541.607 308.544C539.231 306.384 538.511 304.368 537.431 301.2V300.12C537.431 296.592 540.383 294.576 543.623 294.576C544.775 294.576 546.071 294.72 547.151 295.152C548.231 295.656 549.167 296.52 550.391 296.52C551.471 296.52 552.263 295.08 552.263 294.216C552.263 291.12 548.663 289.464 545.999 289.464C536.999 289.464 532.463 292.848 532.463 301.92C532.463 306.096 535.487 309.192 537.431 312.576C537.503 312.72 537.719 313.08 537.791 313.08C538.295 313.8 542.255 318.696 542.687 319.416C545.063 322.368 545.351 325.536 545.351 329.352C545.351 330.432 545.279 331.728 544.631 332.376L541.319 335.472C539.807 336.84 536.495 336.624 536.495 339.144Z" fill="black"/>
<path d="M555.822 314.016L556.902 341.304C556.902 341.664 558.054 342.384 558.486 342.384C559.926 342.384 562.878 342.24 562.878 340.152C562.878 339.504 562.878 339.144 562.662 338.496C562.374 330.288 561.006 322.08 561.006 317.4C561.006 316.32 565.47 314.952 566.982 313.656C569.862 311.208 571.446 310.488 572.382 308.256C573.39 305.88 573.678 304.224 573.678 301.848C573.678 299.184 573.174 295.8 571.446 293.352C569.574 290.832 564.03 288.672 560.214 288.672C558.99 288.672 556.398 289.032 555.39 290.544C555.174 292.272 555.174 293.136 555.174 294.792C555.174 301.2 555.822 307.608 555.822 314.016ZM560.79 295.944C560.646 295.368 560.646 295.152 560.646 294.648C560.646 293.928 561.15 293.856 561.726 293.856C565.614 293.856 566.982 297.672 566.982 300.912C566.982 304.08 564.966 312.288 560.79 312.288V295.944Z" fill="black"/>
<path d="M580.896 336.984C582.12 337.848 583.632 339.576 585.288 339.576C592.704 339.576 594 334.536 595.08 328.056C595.008 328.056 595.008 327.912 595.008 327.768C595.008 325.104 596.376 323.232 596.376 321.216C596.376 320.352 596.16 319.632 596.16 318.768C596.16 316.392 596.736 314.16 596.736 311.784C595.728 306.672 596.232 303.648 594.504 299.328C593.928 297.888 592.704 296.736 592.272 295.368L590.04 293.136L588.312 292.56H584.064C583.92 292.56 581.904 293.424 581.616 293.712C576.432 297.456 575.424 309.192 575.424 315.168C575.424 319.776 575.712 328.416 578.232 332.664L580.896 336.984ZM580.68 314.376C580.68 312.504 581.04 310.704 581.256 308.832C581.256 306.528 582.048 296.664 585.936 295.944C590.184 299.76 588.96 306.744 590.4 311.784C590.832 317.328 590.76 321.504 590.76 327.48L589.824 333.096C589.68 333.888 589.104 334.968 588.24 334.968C583.488 334.968 581.112 324.888 580.896 321.288C580.68 320.496 580.68 314.808 580.68 314.376Z" fill="black"/>
<path d="M599.972 340.872C600.476 341.88 601.34 342.6 602.492 342.6C603.788 342.6 605.228 341.592 605.228 340.296C605.228 339.576 605.012 338.928 605.012 338.208C605.012 337.344 605.012 336.84 605.228 335.904C605.156 333.888 605.156 331.656 605.156 329.496C605.156 327.552 605.156 323.52 605.732 323.52C606.236 323.52 606.812 324.528 606.884 324.672C610.484 329.784 613.58 335.256 615.812 341.088C616.316 341.952 617.108 342.6 618.116 342.6C619.412 342.6 620.708 341.736 620.708 340.368C620.708 338.856 618.836 336.408 618.116 335.328L610.988 320.208C610.124 318.768 609.116 317.04 609.116 316.968C609.116 316.104 611.132 314.952 611.564 314.592C614.804 311.928 617.324 307.032 617.324 302.496C617.324 295.224 612.644 289.752 603.644 289.752C602.42 289.752 599.756 290.904 599.756 291.84C599.756 292.848 599.972 293.784 599.972 294.864C599.972 301.56 599.612 308.184 599.612 314.88C599.612 322.584 599.684 330.432 599.828 338.136C599.828 338.568 599.9 340.512 599.972 340.872ZM605.228 301.848C605.228 299.76 605.3 297.672 605.372 295.584C605.588 295.224 606.38 295.224 606.524 295.224C606.884 295.224 608.612 295.872 609.692 296.304C610.772 297.168 611.204 300.12 611.204 301.488C611.204 305.808 608.612 313.584 605.804 314.016C605.732 309.984 605.228 305.952 605.228 301.848Z" fill="black"/>
<path d="M626.95 340.008C627.454 340.872 628.75 341.016 629.542 341.016C630.694 341.016 631.774 339.72 631.774 338.64V336.336C631.774 334.032 631.414 331.872 631.414 329.64C631.414 322.656 631.054 315.672 631.054 308.76C631.054 305.16 631.198 294.432 631.63 294.432H635.95C638.398 294.432 638.542 292.416 638.542 290.904C638.542 290.04 636.886 289.68 636.238 289.68C632.638 289.68 629.182 290.112 625.654 290.616C624.646 290.616 619.894 290.688 618.526 293.064V294.36C618.526 295.584 618.67 297.6 620.398 297.6H620.758C622.054 296.736 623.566 295.512 625.222 295.512C625.654 295.512 625.726 295.512 625.726 296.088L626.662 321.504C626.878 326.688 627.022 331.872 627.022 335.616C627.022 337.488 627.022 339.36 626.95 340.008Z" fill="black"/>
<path d="M407.633 258.015C407.633 261.231 410.246 263.442 413.462 263.442C415.472 261.231 422.105 261.03 425.924 259.221C446.426 249.372 455.069 235.101 461.3 213.795C462.908 208.167 463.31 201.936 464.918 196.107V170.58C464.918 164.349 462.506 155.304 459.29 149.877L447.833 130.581C444.014 124.149 435.773 122.541 429.542 119.526L417.683 113.898C416.276 113.898 405.02 114.099 405.02 117.516C405.02 120.33 406.226 123.345 406.226 126.36C407.03 168.771 408.035 202.74 408.236 255C407.633 256.005 407.633 257.01 407.633 258.015ZM426.527 242.94C424.517 205.554 420.497 167.766 420.497 130.179C433.964 130.179 442.808 155.103 446.828 159.123C451.451 167.565 451.652 180.027 451.652 188.268C451.652 207.162 447.833 232.689 432.155 244.548C431.351 245.352 429.743 246.759 428.336 246.759L427.934 246.558L426.527 242.94Z" fill="black"/>
<path d="M473.338 218.016C474.544 231.684 475.549 245.955 488.614 253.191C493.639 256.005 497.86 257.412 503.488 257.412H506.905C508.513 256.206 510.322 256.407 512.131 255.402C525.598 247.362 531.829 225.654 533.035 208.77V206.961C534.643 198.921 536.251 191.484 537.256 183.444C538.06 175.806 537.859 168.972 538.663 161.334V128.571C538.663 128.37 539.266 126.36 539.266 125.958V125.556C539.266 122.742 536.251 121.737 534.241 121.737C530.221 121.737 521.578 121.737 521.578 127.164C521.578 130.581 522.784 133.998 522.784 137.817V174.6C521.98 180.429 522.382 185.655 521.98 191.484C520.975 203.142 519.367 211.986 516.553 223.845C513.739 231.483 510.724 247.764 503.689 247.764C491.428 247.764 491.026 240.729 487.609 231.885L486.001 212.991V196.107L489.619 154.098C491.227 149.073 491.227 143.445 492.232 138.42C493.237 133.998 494.443 131.385 494.644 126.963C494.644 125.154 493.036 124.35 491.026 124.35C486.805 124.35 482.785 125.757 478.765 125.958C474.343 126.159 472.936 176.61 472.936 196.107C472.936 199.323 473.338 214.8 473.338 218.016Z" fill="black"/>
<path d="M548.335 260.226C549.742 263.04 552.154 265.05 555.37 265.05C558.988 265.05 563.008 262.236 563.008 258.618C563.008 256.608 562.405 254.799 562.405 252.789C562.405 250.377 562.405 248.97 563.008 246.357C562.807 240.729 562.807 234.498 562.807 228.468C562.807 223.041 562.807 211.785 564.415 211.785C565.822 211.785 567.43 214.599 567.631 215.001C577.681 229.272 586.324 244.548 592.555 260.829C593.962 263.241 596.173 265.05 598.987 265.05C602.605 265.05 606.223 262.638 606.223 258.819C606.223 254.598 600.997 247.764 598.987 244.749L579.088 202.539C576.676 198.519 573.862 193.695 573.862 193.494C573.862 191.082 579.49 187.866 580.696 186.861C589.741 179.424 596.776 165.756 596.776 153.093C596.776 132.792 583.711 117.516 558.586 117.516C555.169 117.516 547.732 120.732 547.732 123.345C547.732 126.159 548.335 128.772 548.335 131.787C548.335 150.48 547.33 168.972 547.33 187.665C547.33 209.172 547.531 231.081 547.933 252.588C547.933 253.794 548.134 259.221 548.335 260.226ZM563.008 151.284C563.008 145.455 563.209 139.626 563.41 133.797C564.013 132.792 566.224 132.792 566.626 132.792C567.631 132.792 572.455 134.601 575.47 135.807C578.485 138.219 579.691 146.46 579.691 150.279C579.691 162.339 572.455 184.047 564.616 185.253C564.415 173.997 563.008 162.741 563.008 151.284Z" fill="black"/>
<path d="M611.802 259.623C613.41 261.03 616.023 263.442 618.435 263.442C621.852 263.442 627.078 260.628 627.078 257.412C627.078 249.573 625.269 246.759 625.269 235.302C625.269 231.885 625.269 228.669 625.47 227.463C624.867 226.056 624.666 225.051 624.666 223.845C624.666 222.84 624.867 221.835 624.867 220.629C624.465 206.76 623.862 192.288 623.862 178.419C623.862 172.389 641.55 177.012 641.55 163.746C641.55 162.54 639.339 159.123 637.932 159.123C633.51 159.726 628.686 161.736 624.666 161.736C621.852 161.736 621.249 139.224 621.249 133.596V128.973C621.249 124.551 638.133 124.35 643.56 124.35C646.173 122.541 647.781 119.124 647.781 115.908C647.781 112.692 642.957 111.888 637.329 111.888C633.309 111.888 629.49 112.29 627.681 112.29H623.46C616.626 112.29 607.983 112.491 607.983 121.134C607.983 125.556 608.385 131.586 608.787 133.194C608.787 135.003 608.586 146.46 608.586 154.902C608.586 183.444 611.4 211.182 611.4 239.523C611.4 243.342 611.199 246.96 611.199 250.377C611.199 253.593 611.4 256.608 611.802 259.623Z" fill="black"/>
<g clip-path="url(#clip0_4709_233)">
<path fill-rule="evenodd" clip-rule="evenodd" d="M233.24 79.1384C213.369 55.0086 167.238 33.7178 119.688 55.7183C116.22 57.3228 112.27 58.3087 111 54.5C109.616 50.3477 113.454 48.4987 115.631 47.4495C115.814 47.3617 115.985 47.2795 116.14 47.202C150.206 30.1693 228.64 31.5887 255.24 96.8808C257.653 102.801 258.71 107.435 259.626 111.451C261.675 120.432 263.019 126.325 277.241 136.624C288.553 144.815 294.582 153.656 285.756 172.108C283.659 176.494 283.215 181.065 282.777 185.575C282.615 187.249 282.453 188.915 282.208 190.56C280.897 189.88 278.556 188.412 277.023 187.449L277.022 187.449L277.022 187.449C276.507 187.126 276.084 186.86 275.821 186.7C273.928 185.549 272.038 183.729 270.175 181.934L270.175 181.934C265.929 177.845 261.821 173.888 258.132 178.28C254.243 182.91 261.039 194.728 266.595 199.786C277.438 209.665 291.634 215.441 305.559 221.107C310.645 223.176 315.695 225.23 320.531 227.464C335.688 234.465 343.412 243.106 343.951 260.82C344.403 275.619 347.67 292.479 355.84 305.341C360.273 312.322 362.867 320.107 365.46 327.892L365.46 327.893C366.067 329.713 366.673 331.533 367.303 333.343C369.733 340.324 365.522 339.664 359.13 338.663C358.085 338.5 356.982 338.327 355.84 338.177C351.874 337.654 343.483 333.125 340.134 331.318C339.976 331.232 339.829 331.153 339.694 331.08C335.063 328.586 324.084 328.775 313.714 328.953C303.424 329.13 293.732 329.296 291.435 326.822C282.209 316.886 246.014 296.305 238.917 296.305C236.784 296.305 234.437 298.398 231.759 300.787C228.199 303.962 224.053 307.66 219.045 307.66L205.561 304.112C214.829 304.163 220.768 302.278 219.045 291.337C215.42 268.317 210.931 246.826 196.772 228.774C169.349 193.811 187.108 133.785 224.722 121.01C229.286 119.46 228.677 116.565 228.348 115.004L228.337 114.954C228.326 114.901 228.315 114.849 228.305 114.799C228.298 114.764 228.291 114.731 228.285 114.698C228.28 114.672 228.275 114.647 228.271 114.623C227.803 112.037 226.142 108.236 219.755 108.236C224.723 99.7193 236.973 103.9 240.336 108.945C241.062 110.035 241.556 110.985 241.996 111.831L241.996 111.832L241.996 111.832C243.276 114.294 244.099 115.878 248.852 117.462C249.563 107.526 244.708 97.9678 239.627 94.0418C224.014 81.977 201.304 77.3895 184.981 79.1384C181.452 79.5164 175.755 79.1384 175.755 74.8802C175.755 70.6221 180.67 70.0324 184.271 69.9124C205.562 69.2027 216.917 71.3318 233.24 79.1384ZM295.183 323.023C296.767 325.387 301.147 326.477 303.183 321.825C302.926 321.302 302.693 320.781 302.464 320.269C301.979 319.181 301.512 318.135 300.869 317.209C298.574 313.9 296.303 310.572 294.032 307.244L294.032 307.243C287.314 297.399 280.597 287.554 273.248 278.207C270.267 274.417 262.258 265.698 258.789 277.853C258.595 278.533 258.388 279.127 258.193 279.685C257.748 280.962 257.368 282.049 257.368 283.531C250.271 285.66 244.142 292.305 250.273 294.886C251.429 295.373 252.646 295.877 253.911 296.401C267.397 301.988 286.328 309.831 295.183 323.023ZM293.563 288.498C316.071 299.785 342.466 314.289 356.765 337.411C355.781 336.8 354.798 336.189 353.816 335.578C350.925 333.781 348.034 331.984 345.131 330.209C342.29 328.468 319.38 324.19 316.984 324.693C312.016 319.015 298.531 297.014 293.563 288.498ZM238.207 287.079C242.368 280.89 234.66 255.852 221.175 246.626C226.143 265.078 228.124 274.361 228.271 287.788C228.288 289.321 228.893 292.418 231.11 292.756C233.506 293.117 236.354 289.834 238.207 287.079Z" fill="black"/>
<path fill-rule="evenodd" clip-rule="evenodd" d="M211.823 197.974C216.033 186.632 225.694 181.823 230.067 179.543C242.736 173.716 245.894 174.834 251.729 189.749C256.571 202.125 265.191 210.728 276.89 216.677C290.686 223.692 304.324 231.039 317.909 238.471C327.354 243.642 332.435 251.837 333.922 262.663C336.092 278.439 338.958 294.088 346 309C317.909 283.038 291.116 292.962 293.923 258.937C281.994 263.899 291.423 281.389 276.38 269.57C270.065 264.608 260.241 262.663 256.089 256.83C253.352 264.472 256.274 272.544 248.364 278.343C244.892 262.768 238.804 248.675 238.829 232.927C238.835 229.411 239.19 227.746 240.593 221.367C233.663 222.061 231.095 229.299 230.769 232.927C230.587 234.952 229.86 239.692 230.067 244.05C216.033 235.544 214.63 223.493 213.226 210.734C208.348 216.243 208.314 219.949 208.314 226.329C197.873 218.08 194.692 206.977 193.417 194.535C191.315 174.049 197.12 156.114 211.623 141.5C224.797 128.225 237.786 122.213 252.522 128.505C258.837 131.202 267.258 141.973 279.889 150.48C285.502 154.26 280.21 165.049 277.94 169.608C275.826 173.844 272.16 170.292 269.185 169.328C247.376 162.242 227.26 168.202 214.63 185.214C213.317 186.983 209.016 192.303 211.823 197.974Z" fill="#00A5E3"/>
<path fill-rule="evenodd" clip-rule="evenodd" d="M241.286 298.07C240.889 298.265 240.096 298.814 238.846 300.215C236.05 303.349 231.409 306.275 226.587 308.399C221.732 310.536 216.109 312.119 211.12 312.119C211.12 312.119 181.964 312.381 176.5 314.5C171.036 316.619 146.677 339.472 146.677 339.472C145.036 340.95 137 341.5 136.499 340C135.8 337.904 139.681 335.007 141.322 333.528L169 306.5C170.5 305 173 304.119 175.5 304.119H211.12C214.614 304.119 219.1 302.954 223.363 301.077C227.66 299.185 231.148 296.828 232.876 294.89C235.928 291.469 239.333 289.203 243.326 290.25C244.997 290.688 246.305 291.627 247.207 292.349C247.648 292.702 248.083 293.08 248.458 293.406L248.524 293.463C248.936 293.821 249.297 294.132 249.664 294.425C250.115 294.784 251.673 295.638 254.456 296.973C256.192 297.805 258.179 298.722 260.303 299.702C261.376 300.198 262.485 300.709 263.614 301.234C266.935 302.779 270.391 304.421 273.389 306C276.295 307.53 279.101 309.169 280.902 310.739C282.468 312.105 283.951 313.634 285.326 315.071C285.475 315.226 285.622 315.38 285.768 315.533C287.015 316.837 288.185 318.061 289.401 319.199C292.128 321.752 294.616 323.408 297.365 323.907C300.062 324.395 307.031 324.64 315.099 324.706C322.99 324.77 331.467 324.665 336.857 324.548C337.589 324.532 338.31 324.717 338.944 325.083L352.659 333H364C366.209 333 368 334.791 368 337C368 339.209 366.209 341 364 341H351.588C350.886 341 350.196 340.815 349.588 340.464L335.911 332.569C330.454 332.677 322.496 332.766 315.034 332.705C307.22 332.642 299.463 332.417 295.939 331.778C290.913 330.868 287.039 327.946 283.934 325.039C282.545 323.739 281.216 322.349 279.99 321.066C279.841 320.91 279.694 320.756 279.548 320.604C278.163 319.157 276.906 317.869 275.645 316.769C274.618 315.874 272.564 314.607 269.661 313.078C266.849 311.597 263.546 310.025 260.24 308.488C259.166 307.989 258.087 307.49 257.026 307.001C254.866 306.004 252.786 305.044 250.997 304.186C248.5 302.989 245.994 301.73 244.678 300.68C244.161 300.269 243.683 299.854 243.28 299.504L243.264 299.49C242.847 299.128 242.522 298.846 242.209 298.596C241.899 298.347 241.675 298.192 241.506 298.093C241.455 298.063 241.414 298.041 241.382 298.025C241.357 298.036 241.325 298.05 241.286 298.07Z" fill="black"/>
</g>
<defs>
<clipPath id="clip0_4709_233">
<rect width="303" height="303" fill="white" transform="translate(88 38)"/>
</clipPath>
</defs>
</svg>
